<svg aria-hidden="true" style="position: absolute; width: 0; height: 0; overflow: hidden;" version="1.1" xmlns="http://www.w3.org/2000/svg" xmlns:xlink="http://www.w3.org/1999/xlink">
<defs>
<symbol id="icon-chat" viewBox="0 0 24 24">
<path fill="none" stroke="#00b068" style="stroke: var(--color1, #00b068)" stroke-linejoin="round" stroke-linecap="round" stroke-miterlimit="4" stroke-width="2" d="M6.094 11.229c-0.062-0.401-0.094-0.811-0.094-1.229 0-4.418 3.605-8 8.053-8s8.053 3.582 8.053 8c0 0.998-0.184 1.953-0.52 2.835-0.070 0.183-0.105 0.274-0.121 0.346s-0.022 0.121-0.024 0.193c-0.002 0.073 0.008 0.154 0.028 0.315l0.402 3.27c0.044 0.354 0.065 0.531 0.006 0.66-0.052 0.113-0.143 0.202-0.257 0.251-0.13 0.056-0.306 0.030-0.659-0.022l-3.185-0.467c-0.166-0.024-0.249-0.037-0.325-0.036s-0.127 0.006-0.2 0.021c-0.074 0.016-0.169 0.051-0.358 0.122-0.883 0.331-1.841 0.512-2.84 0.512-0.418 0-0.829-0.032-1.23-0.093M7.632 22c2.965 0 5.368-2.462 5.368-5.5s-2.403-5.5-5.368-5.5c-2.965 0-5.368 2.462-5.368 5.5 0 0.611 0.097 1.198 0.276 1.747 0.076 0.232 0.114 0.348 0.126 0.427 0.013 0.083 0.015 0.129 0.010 0.213-0.005 0.080-0.025 0.171-0.065 0.352l-0.611 2.762 2.995-0.409c0.163-0.022 0.245-0.033 0.317-0.033 0.075 0 0.115 0.005 0.189 0.019 0.070 0.014 0.174 0.051 0.382 0.124 0.548 0.193 1.137 0.299 1.749 0.299z"></path>
</symbol>
<symbol id="icon-dot" viewBox="0 0 24 24">
<path fill="#14c57c" style="fill: var(--color2, #14c57c)" d="M13 10h-2c-0.552 0-1 0.448-1 1v2c0 0.552 0.448 1 1 1h2c0.552 0 1-0.448 1-1v-2c0-0.552-0.448-1-1-1z"></path>
</symbol>
<symbol id="icon-arrow-right" viewBox="0 0 24 24">
<path  style="stroke: var(--color3, #f0f0f0)" stroke-linejoin="round" stroke-linecap="round" stroke-miterlimit="4" stroke-width="2" d="M4 12h16"></path>
<path  style="stroke: var(--color3, #f0f0f0)" stroke-linejoin="round" stroke-linecap="round" stroke-miterlimit="4" stroke-width="2" d="M14 6l6 6-6 6"></path>
</symbol>
<symbol id="icon-arrow-left" viewBox="0 0 24 24">
<path stroke-linejoin="round" stroke-linecap="round" stroke-miterlimit="4" stroke-width="2" d="M20 12h-16"></path>
<path stroke-linejoin="round" stroke-linecap="round" stroke-miterlimit="4" stroke-width="2" d="M10 18l-6-6 6-6"></path>
</symbol>
<symbol id="icon-down" viewBox="0 0 24 24">
<path fill="none" stroke="#f0f0f0" style="stroke: var(--color3, #f0f0f0)" stroke-linejoin="miter" stroke-linecap="round" stroke-miterlimit="4" stroke-width="2" d="M18 9l-6 6-6-6"></path>
</symbol>
<symbol id="icon-above" viewBox="0 0 24 24">
<path fill="none" stroke="#f0f0f0" style="stroke: var(--color3, #f0f0f0)" stroke-linejoin="miter" stroke-linecap="round" stroke-miterlimit="4" stroke-width="2" d="M18 15l-6-6-6 6"></path>
</symbol>
<symbol id="icon-hourglass" viewBox="0 0 24 24">
<path fill="none" stroke="#14c57c" style="stroke: var(--color2, #14c57c)" stroke-linejoin="round" stroke-linecap="round" stroke-miterlimit="4" stroke-width="2" d="M18.163 2h-12.325c-0.462 0-0.837 0.375-0.837 0.837 0 2.665 1.059 5.221 2.943 7.106l1.219 1.219c0.121 0.121 0.182 0.182 0.225 0.24 0.264 0.355 0.264 0.841 0 1.195-0.043 0.058-0.104 0.119-0.225 0.24l-1.219 1.219c-1.885 1.885-2.943 4.441-2.943 7.106 0 0.462 0.375 0.837 0.837 0.837h12.325c0.462 0 0.837-0.375 0.837-0.837 0-2.665-1.059-5.221-2.943-7.106l-1.219-1.219c-0.121-0.121-0.182-0.182-0.225-0.24-0.264-0.355-0.264-0.841 0-1.195 0.043-0.058 0.104-0.119 0.225-0.24l1.219-1.219c1.885-1.885 2.943-4.441 2.943-7.106 0-0.462-0.375-0.837-0.837-0.837z"></path>
</symbol>
<symbol id="icon-user" viewBox="0 0 24 24">
<path fill="none" stroke="#14c57c" style="stroke: var(--color2, #14c57c)" stroke-linejoin="round" stroke-linecap="round" stroke-miterlimit="4" stroke-width="2" d="M20 21c0-1.396 0-2.093-0.172-2.661-0.388-1.278-1.388-2.279-2.667-2.667-0.568-0.172-1.266-0.172-2.661-0.172h-5c-1.396 0-2.093 0-2.661 0.172-1.278 0.388-2.279 1.388-2.667 2.667-0.172 0.568-0.172 1.266-0.172 2.661"></path>
<path fill="none" stroke="#14c57c" style="stroke: var(--color2, #14c57c)" stroke-linejoin="round" stroke-linecap="round" stroke-miterlimit="4" stroke-width="2" d="M12 12c2.485 0 4.5-2.015 4.5-4.5s-2.015-4.5-4.5-4.5c-2.485 0-4.5 2.015-4.5 4.5s2.015 4.5 4.5 4.5z"></path>
</symbol>
<symbol id="icon-brush" viewBox="0 0 24 24">
<path fill="none" stroke="#14c57c" style="stroke: var(--color2, #14c57c)" stroke-linejoin="round" stroke-linecap="round" stroke-miterlimit="4" stroke-width="2" d="M12.778 15l-3.778-3.778"></path>
<path fill="none" stroke="#14c57c" style="stroke: var(--color2, #14c57c)" stroke-linejoin="round" stroke-linecap="round" stroke-miterlimit="4" stroke-width="2" d="M2 21.999c2 0 4.608 0.342 5.975-1.025s1.367-3.583 0-4.95c-1.367-1.367-3.583-1.367-4.95 0s0 3.975-1.025 5.975z"></path>
<path fill="none" stroke="#14c57c" style="stroke: var(--color2, #14c57c)" stroke-linejoin="round" stroke-linecap="round" stroke-miterlimit="4" stroke-width="2" d="M8 15.999c-0.491-0.491-0.737-0.737-0.876-0.994-0.333-0.617-0.319-1.364 0.038-1.967 0.149-0.252 0.404-0.488 0.914-0.96l9.868-9.137c0.869-0.805 2.219-0.779 3.057 0.059s0.864 2.187 0.059 3.057l-9.137 9.868c-0.472 0.51-0.708 0.765-0.96 0.914-0.604 0.357-1.35 0.371-1.967 0.038-0.257-0.139-0.503-0.385-0.994-0.876z"></path>
</symbol>
<symbol id="icon-location" viewBox="0 0 24 24">
<path fill="none" stroke="#14c57c" style="stroke: var(--color2, #14c57c)" stroke-linejoin="round" stroke-linecap="round" stroke-miterlimit="4" stroke-width="1" d="M15 10.5c0 0.796-0.316 1.559-0.879 2.121s-1.326 0.879-2.121 0.879c-0.796 0-1.559-0.316-2.121-0.879s-0.879-1.326-0.879-2.121c0-0.796 0.316-1.559 0.879-2.121s1.326-0.879 2.121-0.879c0.796 0 1.559 0.316 2.121 0.879s0.879 1.326 0.879 2.121v0z"></path>
<path fill="none" stroke="#14c57c" style="stroke: var(--color2, #14c57c)" stroke-linejoin="round" stroke-linecap="round" stroke-miterlimit="4" stroke-width="1" d="M19.5 10.5c0 7.142-7.5 11.25-7.5 11.25s-7.5-4.108-7.5-11.25c0-1.989 0.79-3.897 2.197-5.303s3.314-2.197 5.303-2.197c1.989 0 3.897 0.79 5.303 2.197s2.197 3.314 2.197 5.303v0z"></path>
</symbol>
<symbol id="icon-email" viewBox="0 0 24 24">
<path fill="none" stroke="#14c57c" style="stroke: var(--color2, #14c57c)" stroke-linejoin="round" stroke-linecap="round" stroke-miterlimit="4" stroke-width="1" d="M21.75 6.75v10.5c0 0.597-0.237 1.169-0.659 1.591s-0.994 0.659-1.591 0.659h-15c-0.597 0-1.169-0.237-1.591-0.659s-0.659-0.994-0.659-1.591v-10.5M21.75 6.75c0-0.597-0.237-1.169-0.659-1.591s-0.994-0.659-1.591-0.659h-15c-0.597 0-1.169 0.237-1.591 0.659s-0.659 0.994-0.659 1.591M21.75 6.75v0.243c0 0.384-0.098 0.762-0.286 1.097s-0.457 0.617-0.784 0.819l-7.5 4.615c-0.355 0.219-0.763 0.334-1.18 0.334s-0.825-0.116-1.18-0.334l-7.5-4.614c-0.327-0.201-0.597-0.483-0.784-0.819s-0.286-0.713-0.286-1.097v-0.244"></path>
</symbol>
<symbol id="icon-tel" viewBox="0 0 24 24">
<path fill="none" stroke="#14c57c" style="stroke: var(--color2, #14c57c)" stroke-linejoin="round" stroke-linecap="round" stroke-miterlimit="4" stroke-width="1" d="M2.25 6.75c0 8.284 6.716 15 15 15h2.25c0.597 0 1.169-0.237 1.591-0.659s0.659-0.994 0.659-1.591v-1.372c0-0.516-0.351-0.966-0.852-1.091l-4.423-1.106c-0.44-0.11-0.902 0.055-1.173 0.417l-0.97 1.293c-0.282 0.376-0.769 0.542-1.21 0.38-1.637-0.602-3.124-1.552-4.357-2.786s-2.184-2.72-2.786-4.357c-0.162-0.441 0.004-0.928 0.38-1.21l1.293-0.97c0.363-0.271 0.527-0.734 0.417-1.173l-1.106-4.423c-0.061-0.243-0.201-0.459-0.399-0.614s-0.441-0.238-0.692-0.238h-1.372c-0.597 0-1.169 0.237-1.591 0.659s-0.659 0.994-0.659 1.591v2.25z"></path>
</symbol>
<symbol id="icon-arrow-visit" viewBox="0 0 24 24">
<path fill="none" stroke="#14c57c" style="stroke: var(--color2, #14c57c)" stroke-linejoin="round" stroke-linecap="round" stroke-miterlimit="4" stroke-width="2" d="M4.75 19.25l14.5-14.5M19.25 4.75h-13.5M19.25 4.75v13.5"></path>
</symbol>
<symbol id="icon-right-hero" viewBox="0 0 24 24">
<path fill="#14c57c" style="fill: var(--color2, #14c57c)" d="M0.8 11.2c-0.442 0-0.8 0.358-0.8 0.8s0.358 0.8 0.8 0.8v-1.6zM23.766 12.566c0.312-0.312 0.312-0.819 0-1.131l-5.091-5.091c-0.312-0.312-0.819-0.312-1.131 0s-0.312 0.819 0 1.131l4.526 4.525-4.526 4.526c-0.312 0.312-0.312 0.819 0 1.131s0.819 0.312 1.131 0l5.091-5.091zM0.8 12.8h22.4v-1.6h-22.4v1.6z"></path>
</symbol>
<symbol id="icon-close" viewBox="0 0 24 24">
<path fill="none" stroke="#f0f0f0" style="stroke: var(--color3, #f0f0f0)" stroke-linejoin="round" stroke-linecap="round" stroke-miterlimit="4" stroke-width="1.5" d="M18 6l-12 12"></path>
<path fill="none" stroke="#f0f0f0" style="stroke: var(--color3, #f0f0f0)" stroke-linejoin="round" stroke-linecap="round" stroke-miterlimit="4" stroke-width="1.5" d="M6 6l12 12"></path>
</symbol>
<symbol id="icon-burger" viewBox="0 0 24 24">
<path fill="#f0f0f0" style="fill: var(--color3, #f0f0f0)" d="M4 17.27v-1h16v1h-16zM4 12.5v-1h16v1h-16zM4 7.729v-1h16v1h-16z"></path>
</symbol>
</defs>
</svg>
